<svg width="1024" height="1024" viewBox="0 0 1024 1024" fill="none" xmlns="http://www.w3.org/2000/svg">
  <defs>
    <linearGradient id="shell" x1="168" y1="120" x2="876" y2="904" gradientUnits="userSpaceOnUse">
      <stop stop-color="#14201D"/>
      <stop offset="0.48" stop-color="#23322D"/>
      <stop offset="1" stop-color="#0D1015"/>
    </linearGradient>
    <linearGradient id="mail" x1="252" y1="274" x2="776" y2="748" gradientUnits="userSpaceOnUse">
      <stop stop-color="#F7F1E2"/>
      <stop offset="0.45" stop-color="#D8E8E4"/>
      <stop offset="1" stop-color="#98CFC9"/>
    </linearGradient>
    <radialGradient id="glow" cx="0" cy="0" r="1" gradientUnits="userSpaceOnUse" gradientTransform="translate(724 238) rotate(127.62) scale(584 478)">
      <stop stop-color="#D6F8B8" stop-opacity="0.82"/>
      <stop offset="0.46" stop-color="#66E0D2" stop-opacity="0.38"/>
      <stop offset="1" stop-color="#66E0D2" stop-opacity="0"/>
    </radialGradient>
    <filter id="shadow" x="160" y="218" width="704" height="604" filterUnits="userSpaceOnUse" color-interpolation-filters="sRGB">
      <feDropShadow dx="0" dy="38" stdDeviation="48" flood-color="#020403" flood-opacity="0.42"/>
      <feDropShadow dx="0" dy="4" stdDeviation="10" flood-color="#7DE7D9" flood-opacity="0.22"/>
    </filter>
  </defs>
  <rect x="64" y="64" width="896" height="896" rx="232" fill="url(#shell)"/>
  <rect x="64" y="64" width="896" height="896" rx="232" fill="url(#glow)"/>
  <path d="M244 337C244 301.654 272.654 273 308 273H716C751.346 273 780 301.654 780 337V687C780 722.346 751.346 751 716 751H308C272.654 751 244 722.346 244 687V337Z" fill="url(#mail)" filter="url(#shadow)"/>
  <path d="M277 335L493.86 523.323C504.265 532.36 519.735 532.36 530.14 523.323L747 335" stroke="#15302E" stroke-width="34" stroke-linecap="round" stroke-linejoin="round"/>
  <path d="M278 696L438 545M746 696L586 545" stroke="#15302E" stroke-width="28" stroke-linecap="round" stroke-linejoin="round" stroke-opacity="0.72"/>
  <path d="M313 309H711C730.33 309 746 324.67 746 344V360L529.696 548.866C519.559 557.717 504.441 557.717 494.304 548.866L278 360V344C278 324.67 293.67 309 313 309Z" fill="#F9F3E5" fill-opacity="0.42"/>
  <path d="M319 275H705C746.421 275 780 308.579 780 350V403" stroke="#FFFFFF" stroke-width="20" stroke-linecap="round" stroke-opacity="0.22"/>
  <circle cx="742" cy="274" r="54" fill="#B7F28D"/>
  <circle cx="742" cy="274" r="24" fill="#17312D"/>
</svg>
